<svg width="56" height="56" viewBox="0 0 56 56" fill="none" xmlns="http://www.w3.org/2000/svg">
<path d="M42.154 40.7441L29.4134 28L42.154 15.2558C42.3007 15.1091 42.383 14.9102 42.383 14.7028C42.383 14.4954 42.3007 14.2965 42.154 14.1498C39.4155 11.4105 35.9264 9.54507 32.128 8.78931C28.3295 8.03356 24.3923 8.42144 20.8143 9.90393C17.2362 11.3864 14.178 13.8969 12.0263 17.118C9.87463 20.339 8.72616 24.1259 8.72611 27.9999C8.72606 31.8739 9.87448 35.6609 12.0261 38.882C14.1778 42.1031 17.236 44.6136 20.8141 46.0961C24.3922 47.5786 28.3294 47.9665 32.1279 47.2107C35.9263 46.4549 39.4155 44.5894 42.154 41.85C42.3006 41.7034 42.383 41.5045 42.383 41.2971C42.383 41.0897 42.3006 40.8907 42.154 40.7441ZM33.8291 34.6287L32.518 34.6288C32.3106 34.6288 32.1117 34.7113 31.9651 34.858C31.8185 35.0047 31.7362 35.2036 31.7362 35.4111C31.7363 35.6185 31.8187 35.8174 31.9653 35.9641C32.112 36.1107 32.3109 36.1931 32.5183 36.193L34.4593 36.193C34.5801 36.193 34.6993 36.165 34.8074 36.111C34.9155 36.0571 35.0096 35.9788 35.0822 35.8823L38.0208 38.8217C37.7832 38.91 37.5195 38.9838 37.2484 39.0596C36.7831 39.1733 36.3304 39.3339 35.8974 39.5389C35.455 39.0341 34.8698 38.6756 34.2193 38.5106C33.5687 38.3456 32.8834 38.3819 32.254 38.6148C31.6246 38.8477 31.0806 39.2661 30.694 39.8149C30.3073 40.3636 30.0963 41.0167 30.0887 41.688C30.0101 41.6913 29.9314 41.6966 29.8523 41.7055C29.2551 41.7724 28.707 42.0042 28.1773 42.2281L28.0062 42.3002C27.5191 42.5041 27.0495 42.6834 26.6581 42.6394C26.2303 42.5915 25.7655 42.2574 25.2733 41.9039C24.8052 41.5675 24.3213 41.2196 23.7516 41.0206C23.1932 40.8255 22.606 40.7979 22.0375 40.7706C21.4254 40.7415 20.8474 40.7137 20.4704 40.4768C20.1175 40.2541 19.8472 39.7575 19.5609 39.2311C19.2821 38.7182 18.9936 38.1879 18.5579 37.752C18.1221 37.3161 17.592 37.0276 17.0792 36.7487C16.553 36.4624 16.0563 36.1919 15.8339 35.839C15.5966 35.4621 15.5695 34.8833 15.54 34.2712C15.5132 33.7029 15.4852 33.1153 15.2903 32.5568C15.0913 31.9869 14.7436 31.5028 14.4072 31.0347C14.0534 30.5425 13.7195 30.0775 13.6717 29.6492C13.628 29.2582 13.8073 28.7885 14.0111 28.3013L14.0838 28.1289C14.3077 27.599 14.5392 27.0512 14.6059 26.4542C14.6723 25.861 14.568 25.2781 14.4672 24.7145C14.3598 24.1139 14.2584 23.5467 14.4029 23.1324C14.5431 22.7308 14.9707 22.3535 15.4233 21.9541C15.8571 21.5713 16.3057 21.1756 16.6294 20.6613C16.9418 20.1651 17.099 19.6014 17.2511 19.0564C17.4166 18.4633 17.5728 17.903 17.8934 17.5824C18.214 17.2617 18.774 17.1055 19.367 16.9399C19.9119 16.7878 20.4753 16.6306 20.9714 16.3181C21.4856 15.9942 21.8816 15.5459 22.2639 15.1118C22.6633 14.6588 23.0404 14.2312 23.442 14.091C23.8565 13.9462 24.4236 14.0478 25.0241 14.1553C25.5871 14.2557 26.1701 14.3603 26.7631 14.294C27.3603 14.2271 27.9084 13.9953 28.4381 13.7714L28.6092 13.6993C29.0963 13.4954 29.5663 13.3157 29.9572 13.3601C30.3851 13.408 30.8498 13.7421 31.3421 14.0956C31.8102 14.432 32.2941 14.7799 32.8638 14.9789C33.4222 15.174 34.0094 15.2016 34.5779 15.2289C34.8847 15.2374 35.1909 15.2629 35.4949 15.3052C34.7382 16.6417 34.7704 18.3324 35.6019 19.5978L27.7549 27.447C27.6083 27.5936 27.526 27.7925 27.526 28C27.526 28.2074 27.6083 28.4063 27.7549 28.5529L33.8291 34.6287ZM34.3509 40.8879C33.9516 41.3407 33.5744 41.7684 33.1729 41.9087C32.7743 42.0479 32.2345 41.9593 31.6597 41.8567C31.6315 41.4956 31.7162 41.1347 31.9019 40.8238C32.0877 40.5129 32.3654 40.2674 32.6967 40.1212C33.0279 39.9749 33.3964 39.9352 33.7512 40.0075C34.106 40.0798 34.4296 40.2606 34.6773 40.5248C34.5664 40.6447 34.4582 40.7667 34.3511 40.8881L34.3509 40.8879ZM36.7452 18.4542C36.5849 18.1081 36.5032 17.7308 36.506 17.3494C36.5088 16.968 36.5961 16.5919 36.7615 16.2483C36.8601 16.4123 36.956 16.5884 37.0541 16.7688C37.212 17.0593 37.374 17.3548 37.5631 17.6361L36.7452 18.4542ZM28.3078 46.0229C25.3778 46.0229 22.492 45.3081 19.9006 43.9406C17.3092 42.573 15.0903 40.5939 13.4361 38.1749C11.782 35.7558 10.7426 32.9698 10.408 30.0582C10.0734 27.1465 10.4537 24.1972 11.516 21.4659C12.5782 18.7345 14.2904 16.3034 16.504 14.3834C18.7176 12.4633 21.366 11.1122 24.2195 10.4472C27.0731 9.78216 30.0457 9.82324 32.8798 10.5669C35.7138 11.3105 38.3239 12.7343 40.4836 14.7147L38.6966 16.5022C38.6065 16.3495 38.5182 16.1872 38.4278 16.0211C38.0756 15.3733 37.6763 14.6394 36.9779 14.1992C36.2531 13.7428 35.4024 13.7024 34.6519 13.6668C34.1742 13.6441 33.7231 13.6225 33.3789 13.5023C33.0228 13.378 32.6495 13.1097 32.2545 12.8256C31.6503 12.3912 30.9656 11.899 30.1314 11.8055C29.3685 11.7198 28.6627 11.9816 28.006 12.2566L27.8295 12.3308C27.3827 12.5198 26.9605 12.6982 26.589 12.7399C26.2219 12.7809 25.7738 12.7009 25.2995 12.6158C24.563 12.484 23.7284 12.3349 22.9265 12.6146C22.1386 12.8897 21.5823 13.5207 21.0912 14.0772C20.7673 14.4445 20.4619 14.7909 20.1381 14.9947C19.8352 15.1855 19.4036 15.306 18.9466 15.4335C18.2209 15.6361 17.3983 15.8657 16.7876 16.4766C16.1769 17.0875 15.9473 17.9103 15.7449 18.6362C15.6174 19.0933 15.4969 19.525 15.3058 19.8284C15.1021 20.1522 14.7554 20.458 14.3885 20.7816C13.8321 21.2727 13.2013 21.8292 12.9264 22.6174C12.6466 23.4191 12.796 24.2539 12.9277 24.9905C13.0126 25.4651 13.0928 25.9133 13.0516 26.2808C13.01 26.652 12.8318 27.0739 12.6431 27.5205L12.5683 27.6984C12.2933 28.3556 12.0321 29.0612 12.1175 29.8239C12.2109 30.6584 12.7031 31.3434 13.1373 31.9478C13.4212 32.3431 13.6895 32.7165 13.8139 33.0727C13.934 33.4168 13.9553 33.8681 13.9782 34.346C14.0138 35.0969 14.0543 35.9479 14.5105 36.6729C14.9507 37.372 15.6845 37.771 16.332 38.1233C16.7663 38.3595 17.1763 38.5826 17.4522 38.8586C17.728 39.1345 17.9511 39.5447 18.1874 39.9791C18.4509 40.4639 18.7408 40.9969 19.1626 41.4189C19.3061 41.5636 19.4653 41.6918 19.6373 41.8011C20.3621 42.2575 21.2129 42.298 21.9634 42.3335C22.441 42.3562 22.8921 42.3778 23.2363 42.498C23.5924 42.6223 23.9657 42.8907 24.3608 43.1747C24.9649 43.6091 25.6497 44.1013 26.4839 44.1948C27.2468 44.2805 27.9525 44.0187 28.6093 43.7438L28.7857 43.6695C29.2326 43.4806 29.6548 43.3021 30.0262 43.2604C30.3935 43.2193 30.8415 43.2995 31.3159 43.3844C32.0524 43.5163 32.8869 43.6655 33.6887 43.3857C34.4767 43.1105 35.033 42.4795 35.5241 41.9231C35.848 41.5559 36.1534 41.2094 36.4771 41.0056C36.7801 40.8148 37.2116 40.6943 37.6689 40.5664C38.166 40.4277 38.7085 40.2762 39.1971 39.9983L40.4836 41.2852C37.1673 44.3435 32.8184 46.0357 28.3078 46.0229Z" fill="#F44A25"/>
<path d="M27.0149 18.5282C26.5766 18.0897 26.0181 17.7911 25.4101 17.6701C24.8021 17.5492 24.1718 17.6113 23.5991 17.8486C23.0264 18.0859 22.5369 18.4877 22.1925 19.0033C21.8481 19.5189 21.6642 20.125 21.6642 20.7451C21.6642 21.3652 21.8481 21.9714 22.1925 22.487C22.5369 23.0026 23.0264 23.4044 23.5991 23.6417C24.1718 23.879 24.8021 23.9411 25.4101 23.8201C26.0181 23.6992 26.5766 23.4006 27.0149 22.9621C27.6019 22.3737 27.9315 21.5764 27.9315 20.7451C27.9315 19.9139 27.6019 19.1166 27.0149 18.5282ZM23.6879 21.8561C23.4682 21.6364 23.3186 21.3564 23.258 21.0517C23.1974 20.7469 23.2285 20.431 23.3474 20.1439C23.4663 19.8568 23.6676 19.6114 23.9259 19.4387C24.1842 19.2661 24.4879 19.174 24.7986 19.174C25.1092 19.174 25.4129 19.2661 25.6712 19.4387C25.9296 19.6114 26.1309 19.8568 26.2498 20.1439C26.3687 20.431 26.3998 20.7469 26.3392 21.0517C26.2785 21.3564 26.1289 21.6364 25.9093 21.8561C25.6145 22.1504 25.215 22.3156 24.7986 22.3156C24.3821 22.3156 23.9827 22.1504 23.6879 21.8561Z" fill="#F44A25"/>
<path d="M20.7351 28.5304C20.4244 28.2195 20.0285 28.0079 19.5975 27.9221C19.1665 27.8364 18.7198 27.8803 18.3138 28.0485C17.9078 28.2167 17.5608 28.5016 17.3166 28.867C17.0725 29.2325 16.9421 29.6622 16.9421 30.1017C16.9421 30.5413 17.0723 30.971 17.3164 31.3365C17.5605 31.702 17.9075 31.9869 18.3135 32.1551C18.7194 32.3234 19.1662 32.3675 19.5972 32.2818C20.0282 32.1961 20.4241 31.9845 20.7349 31.6737C21.151 31.2566 21.3848 30.6914 21.3848 30.1021C21.3849 29.5128 21.1512 28.9475 20.7351 28.5304ZM18.6044 30.6617C18.4937 30.551 18.4184 30.41 18.3878 30.2564C18.3573 30.1029 18.373 29.9438 18.4329 29.7991C18.4928 29.6545 18.5942 29.5309 18.7243 29.4439C18.8544 29.357 19.0074 29.3106 19.1639 29.3106C19.3204 29.3106 19.4734 29.357 19.6035 29.444C19.7336 29.531 19.835 29.6546 19.8949 29.7992C19.9548 29.9439 19.9704 30.103 19.9399 30.2565C19.9094 30.4101 19.834 30.5511 19.7233 30.6618C19.5748 30.8099 19.3736 30.893 19.1639 30.8929C18.9542 30.8929 18.7528 30.8099 18.6044 30.6617Z" fill="#F44A25"/>
<path d="M25.6763 39.443C25.9558 39.7226 26.312 39.9131 26.6997 39.9902C27.0874 40.0674 27.4893 40.0278 27.8546 39.8764C28.2198 39.7251 28.532 39.4688 28.7517 39.14C28.9713 38.8112 29.0885 38.4247 29.0885 38.0292C29.0885 37.6338 28.9713 37.2472 28.7517 36.9184C28.532 36.5896 28.2198 36.3333 27.8546 36.182C27.4893 36.0307 27.0874 35.9911 26.6997 36.0682C26.312 36.1454 25.9558 36.3358 25.6763 36.6154C25.302 36.9907 25.0918 37.4991 25.0918 38.0292C25.0918 38.5593 25.302 39.0677 25.6763 39.443ZM27.5931 37.5256C27.6927 37.6252 27.7605 37.7521 27.7879 37.8902C27.8154 38.0283 27.8013 38.1715 27.7474 38.3016C27.6935 38.4317 27.6023 38.5429 27.4852 38.6211C27.3681 38.6994 27.2305 38.7411 27.0897 38.7411C26.9489 38.7411 26.8113 38.6993 26.6943 38.6211C26.5772 38.5428 26.486 38.4316 26.4321 38.3015C26.3783 38.1714 26.3642 38.0282 26.3917 37.8901C26.4191 37.752 26.4869 37.6251 26.5865 37.5256C26.7201 37.3923 26.9011 37.3175 27.0898 37.3176C27.2784 37.3176 27.4594 37.3925 27.5929 37.5258L27.5931 37.5256Z" fill="#F44A25"/>
<path d="M24.8746 31.5961C24.8746 31.6989 24.8948 31.8006 24.9341 31.8955C24.9734 31.9905 25.031 32.0767 25.1036 32.1494C25.1762 32.222 25.2625 32.2796 25.3573 32.319C25.4522 32.3583 25.5539 32.3785 25.6566 32.3785C25.7594 32.3786 25.8611 32.3583 25.9559 32.319C26.0508 32.2797 26.1371 32.2221 26.2097 32.1495C26.2823 32.0768 26.3399 31.9906 26.3793 31.8957C26.4186 31.8008 26.4388 31.699 26.4388 31.5963L26.4388 29.6538C26.4388 29.4463 26.3564 29.2473 26.2098 29.1006C26.0631 28.9539 25.8641 28.8714 25.6567 28.8714C25.4493 28.8714 25.2503 28.9538 25.1036 29.1005C24.957 29.2473 24.8745 29.4463 24.8745 29.6538L24.8746 31.5961Z" fill="#F44A25"/>
<path d="M29.6874 18.9359C29.6874 19.1434 29.7698 19.3424 29.9165 19.4891C30.0632 19.6359 30.2621 19.7183 30.4695 19.7183C30.677 19.7183 30.8759 19.6359 31.0226 19.4892C31.1693 19.3425 31.2517 19.1435 31.2517 18.936L31.2517 16.9936C31.2517 16.7861 31.1693 16.5871 31.0226 16.4404C30.876 16.2937 30.677 16.2112 30.4696 16.2112C30.2622 16.2112 30.0632 16.2936 29.9166 16.4403C29.7699 16.587 29.6875 16.786 29.6874 16.9935L29.6874 18.9359Z" fill="#F44A25"/>
<path d="M18.8017 23.0717C18.8017 22.8642 18.7193 22.6652 18.5727 22.5184C18.426 22.3717 18.2271 22.2893 18.0196 22.2893C17.8122 22.2893 17.6132 22.3717 17.4666 22.5184C17.3199 22.6651 17.2375 22.8641 17.2375 23.0716L17.2375 25.0139C17.2374 25.2214 17.3198 25.4204 17.4665 25.5671C17.6131 25.7139 17.8121 25.7963 18.0195 25.7963C18.2269 25.7963 18.4259 25.7139 18.5725 25.5672C18.7192 25.4205 18.8016 25.2216 18.8017 25.0141L18.8017 23.0717Z" fill="#F44A25"/>
<path d="M22.2318 35.744C22.2318 35.6413 22.2116 35.5396 22.1723 35.4447C22.133 35.3497 22.0754 35.2635 22.0028 35.1908C21.9302 35.1182 21.844 35.0606 21.7491 35.0212C21.6542 34.9819 21.5525 34.9617 21.4498 34.9617C21.3471 34.9616 21.2454 34.9819 21.1505 35.0212C21.0556 35.0605 20.9694 35.1181 20.8967 35.1907C20.8241 35.2634 20.7665 35.3496 20.7272 35.4445C20.6879 35.5394 20.6676 35.6412 20.6676 35.7439L20.6674 37.6862C20.6674 37.8937 20.7498 38.0927 20.8965 38.2394C21.0431 38.3861 21.2421 38.4686 21.4495 38.4686C21.6569 38.4686 21.8559 38.3862 22.0026 38.2394C22.1493 38.0927 22.2317 37.8937 22.2317 37.6862L22.2318 35.744Z" fill="#F44A25"/>
</svg>
